<svg width="20" height="20" viewBox="0 0 20 20" fill="none" xmlns="http://www.w3.org/2000/svg">
<path d="M10 18.3333C10.5161 18.334 11.0195 18.1738 11.4404 17.8751C11.8613 17.5764 12.1786 17.154 12.3483 16.6667H7.65167C7.82139 17.154 8.13873 17.5764 8.55959 17.8751C8.98045 18.1738 9.48392 18.334 10 18.3333ZM15.8333 12.155V8.33332C15.8333 5.65249 14.0125 3.39416 11.5458 2.71499C11.3017 2.09999 10.705 1.66666 10 1.66666C9.295 1.66666 8.69833 2.09999 8.45417 2.71499C5.9875 3.39499 4.16667 5.65249 4.16667 8.33332V12.155L2.74417 13.5775C2.66663 13.6547 2.60514 13.7466 2.56324 13.8477C2.52133 13.9488 2.49984 14.0572 2.5 14.1667V15C2.5 15.221 2.5878 15.433 2.74408 15.5892C2.90036 15.7455 3.11232 15.8333 3.33333 15.8333H16.6667C16.8877 15.8333 17.0996 15.7455 17.2559 15.5892C17.4122 15.433 17.5 15.221 17.5 15V14.1667C17.5002 14.0572 17.4787 13.9488 17.4368 13.8477C17.3949 13.7466 17.3334 13.6547 17.2558 13.5775L15.8333 12.155Z" fill="#2D2D2D"/>
</svg>
